<?xml version="1.0" encoding="UTF-8" standalone="no"?>
<svg width="162px" height="102px" viewBox="0 0 162 102" version="1.1" xmlns="http://www.w3.org/2000/svg" xmlns:xlink="http://www.w3.org/1999/xlink" xmlns:sketch="http://www.bohemiancoding.com/sketch/ns">
    <!-- Generator: Sketch 3.4 (15575) - http://www.bohemiancoding.com/sketch -->
    <title>shield-biz</title>
    <desc>Created with Sketch.</desc>
    <defs></defs>
    <g id="Website-v2" stroke="none" stroke-width="1" fill="none" fill-rule="evenodd" sketch:type="MSPage">
        <g id="website-signup-copy-2" sketch:type="MSArtboardGroup" transform="translate(-675.000000, -1419.000000)">
            <g id="shield-biz" sketch:type="MSLayerGroup" transform="translate(677.000000, 1422.000000)">
                <path d="M157,82.1357 L78.7473393,96.3637 L0.5002,82.1357 L0.5002,0.4467 L157,0.4467 L157,82.1357 L157,82.1357 Z" id="shield" stroke="#DA4432" stroke-width="5" sketch:type="MSShapeGroup"></path>
                <path d="M49.204,36.504 C49.204,38.016 48.364,39.072 46.924,39 L46.924,34.104 C48.34,34.056 49.204,35.088 49.204,36.504 L49.204,36.504 Z M46.828,42 C50.092,42 52.732,40.488 52.732,36.912 C52.732,35.352 51.988,33.432 50.5,32.712 C51.844,31.8 52.444,30.576 52.444,28.968 C52.444,27.456 51.796,25.848 50.596,24.888 C49.444,23.952 48.244,23.904 46.852,23.904 L43.348,23.904 L43.348,42 L46.828,42 Z M49.06,29.04 C49.06,30.408 48.268,31.32 46.924,31.32 L46.924,26.904 C48.292,26.832 49.06,27.72 49.06,29.04 L49.06,29.04 Z M54.412,29.88 L54.412,37.152 C54.412,39.36 54.724,42.24 58.564,42.24 C61.564,42.24 62.884,40.416 62.884,37.608 L62.884,29.88 L59.524,29.88 L59.5,37.272 C59.5,37.872 59.572,39.072 58.66,39.072 C57.532,39.072 57.796,37.2 57.796,36.528 L57.796,29.88 L54.412,29.88 Z M72.028,30.672 C71.044,29.952 70.012,29.64 68.788,29.64 C66.652,29.64 64.732,30.888 64.732,33.192 C64.732,37.032 68.644,36.624 68.596,38.232 C68.596,38.856 68.14,39.24 67.612,39.24 C66.94,39.24 66.436,38.88 65.932,38.448 L64.444,40.848 C65.452,41.688 66.796,42.24 68.092,42.24 C70.588,42.24 71.98,40.392 71.98,37.992 C71.98,34.368 68.164,34.656 68.116,33.24 C68.116,32.712 68.428,32.352 69.028,32.352 C69.724,32.352 70.18,32.712 70.66,33.144 L72.028,30.672 Z M73.564,29.88 L73.564,42 L76.948,42 L76.948,29.88 L73.564,29.88 Z M75.244,28.44 C76.42,28.44 77.404,27.456 77.404,26.304 C77.404,25.152 76.492,24.12 75.316,24.12 C74.092,24.12 73.108,25.032 73.108,26.256 C73.108,27.456 74.068,28.44 75.244,28.44 L75.244,28.44 Z M81.988,29.88 L78.604,29.88 L78.604,42 L81.988,42 L81.988,34.44 C81.988,33.84 82.132,33.048 82.9,33.048 C83.98,33.048 83.74,34.728 83.74,35.352 L83.74,42 L87.124,42 L87.124,34.176 C87.124,32.424 87.34,29.64 84.844,29.64 C83.524,29.64 82.492,30.6 82.036,31.752 L81.988,31.752 L81.988,29.88 Z M94.324,34.752 L91.852,34.752 L91.852,34.392 C91.852,33.624 92.068,32.232 93.1,32.232 C94.156,32.232 94.324,33.672 94.324,34.464 L94.324,34.752 Z M97.252,35.448 C97.444,31.632 95.38,29.64 93.148,29.64 C89.62,29.64 88.564,33.288 88.564,36.192 C88.564,39.192 89.788,42.24 93.22,42.24 C95.692,42.24 96.772,40.488 97.06,38.256 L94.18,38.256 C94.18,38.976 93.964,39.648 93.1,39.648 C91.804,39.648 91.852,37.728 91.828,36.84 L97.18,36.84 L97.252,35.448 Z M106.18,30.672 C105.196,29.952 104.164,29.64 102.94,29.64 C100.804,29.64 98.884,30.888 98.884,33.192 C98.884,37.032 102.796,36.624 102.748,38.232 C102.748,38.856 102.292,39.24 101.764,39.24 C101.092,39.24 100.588,38.88 100.084,38.448 L98.596,40.848 C99.604,41.688 100.948,42.24 102.244,42.24 C104.74,42.24 106.132,40.392 106.132,37.992 C106.132,34.368 102.316,34.656 102.268,33.24 C102.268,32.712 102.58,32.352 103.18,32.352 C103.876,32.352 104.332,32.712 104.812,33.144 L106.18,30.672 Z M115.204,30.672 C114.22,29.952 113.188,29.64 111.964,29.64 C109.828,29.64 107.908,30.888 107.908,33.192 C107.908,37.032 111.82,36.624 111.772,38.232 C111.772,38.856 111.316,39.24 110.788,39.24 C110.116,39.24 109.612,38.88 109.108,38.448 L107.62,40.848 C108.628,41.688 109.972,42.24 111.268,42.24 C113.764,42.24 115.156,40.392 115.156,37.992 C115.156,34.368 111.34,34.656 111.292,33.24 C111.292,32.712 111.604,32.352 112.204,32.352 C112.9,32.352 113.356,32.712 113.836,33.144 L115.204,30.672 Z M38.488,45.904 L36.904,64 L40.744,64 L41.272,50.968 L41.32,50.968 L41.32,51.304 L41.92,55.336 L43.672,64 L46.432,64 L47.968,55.432 L48.544,50.968 L48.592,50.968 L49.456,64 L53.128,64 L51.232,45.904 L46.432,45.904 L44.992,56.584 L44.944,56.584 L43.192,45.904 L38.488,45.904 Z M58.936,61.144 C57.736,61.144 57.688,58.648 57.688,57.88 C57.688,57.184 57.76,54.64 58.888,54.64 C60.04,54.64 60.112,57.208 60.112,57.88 C60.112,58.528 60.016,61.144 58.936,61.144 L58.936,61.144 Z M59.872,64 L63.256,64 L63.256,51.88 L59.872,51.88 L59.872,53.368 L59.824,53.368 C59.44,52.384 58.672,51.64 57.544,51.64 C54.712,51.64 54.304,55.84 54.304,57.928 C54.304,59.872 54.856,64.24 57.592,64.24 C58.672,64.24 59.368,63.544 59.824,62.632 L59.872,62.632 L59.872,64 Z M68.296,51.88 L64.912,51.88 L64.912,64 L68.296,64 L68.296,56.44 C68.296,55.84 68.44,55.048 69.208,55.048 C70.288,55.048 70.048,56.728 70.048,57.352 L70.048,64 L73.432,64 L73.432,56.176 C73.432,54.424 73.648,51.64 71.152,51.64 C69.832,51.64 68.8,52.6 68.344,53.752 L68.296,53.752 L68.296,51.88 Z M79.504,61.144 C78.304,61.144 78.256,58.648 78.256,57.88 C78.256,57.184 78.328,54.64 79.456,54.64 C80.608,54.64 80.68,57.208 80.68,57.88 C80.68,58.528 80.584,61.144 79.504,61.144 L79.504,61.144 Z M80.44,64 L83.824,64 L83.824,51.88 L80.44,51.88 L80.44,53.368 L80.392,53.368 C80.008,52.384 79.24,51.64 78.112,51.64 C75.28,51.64 74.872,55.84 74.872,57.928 C74.872,59.872 75.424,64.24 78.16,64.24 C79.24,64.24 79.936,63.544 80.392,62.632 L80.44,62.632 L80.44,64 Z M89.92,61.144 C88.696,61.144 88.648,58.648 88.648,57.88 C88.648,57.184 88.72,54.64 89.872,54.64 C91.024,54.64 91.072,57.208 91.072,57.88 C91.072,58.528 91,61.144 89.92,61.144 L89.92,61.144 Z M85.384,65.608 C85.552,68.368 86.872,70.024 89.752,70.024 C92.704,70.024 94.288,68.608 94.288,65.056 L94.288,51.88 L90.904,51.88 L90.904,53.344 L90.856,53.344 C90.472,52.384 89.656,51.64 88.528,51.64 C85.648,51.64 85.264,56.008 85.264,58.12 C85.264,59.464 85.456,61.024 86.056,62.224 C86.584,63.256 87.424,64.24 88.672,64.24 C89.848,64.24 90.4,63.376 90.856,62.488 L90.904,62.488 L90.904,64.024 C90.904,65.056 91.12,67.336 89.608,67.336 C88.648,67.336 88.432,66.376 88.384,65.608 L85.384,65.608 Z M101.512,56.752 L99.04,56.752 L99.04,56.392 C99.04,55.624 99.256,54.232 100.288,54.232 C101.344,54.232 101.512,55.672 101.512,56.464 L101.512,56.752 Z M104.44,57.448 C104.632,53.632 102.568,51.64 100.336,51.64 C96.808,51.64 95.752,55.288 95.752,58.192 C95.752,61.192 96.976,64.24 100.408,64.24 C102.88,64.24 103.96,62.488 104.248,60.256 L101.368,60.256 C101.368,60.976 101.152,61.648 100.288,61.648 C98.992,61.648 99.04,59.728 99.016,58.84 L104.368,58.84 L104.44,57.448 Z M105.904,51.88 L105.904,64 L109.288,64 L109.288,57.952 C109.288,56.152 109.312,54.664 111.568,54.664 C111.76,54.664 111.928,54.688 112.096,54.712 L112.096,51.424 C110.776,51.544 109.96,52.288 109.336,53.344 L109.288,53.344 L109.288,51.88 L105.904,51.88 Z M120.928,52.672 C119.944,51.952 118.912,51.64 117.688,51.64 C115.552,51.64 113.632,52.888 113.632,55.192 C113.632,59.032 117.544,58.624 117.496,60.232 C117.496,60.856 117.04,61.24 116.512,61.24 C115.84,61.24 115.336,60.88 114.832,60.448 L113.344,62.848 C114.352,63.688 115.696,64.24 116.992,64.24 C119.488,64.24 120.88,62.392 120.88,59.992 C120.88,56.368 117.064,56.656 117.016,55.24 C117.016,54.712 117.328,54.352 117.928,54.352 C118.624,54.352 119.08,54.712 119.56,55.144 L120.928,52.672 Z" id="Business-" fill="#333333" sketch:type="MSShapeGroup"></path>
            </g>
        </g>
    </g>
</svg>